<?xml version="1.0" encoding="utf-8"?>
<!-- Generator: Adobe Illustrator 25.4.1, SVG Export Plug-In . SVG Version: 6.00 Build 0)  -->
<svg version="1.1" id="Layer_1" xmlns="http://www.w3.org/2000/svg" xmlns:xlink="http://www.w3.org/1999/xlink" x="0px" y="0px"
	 viewBox="0 0 94 38" style="enable-background:new 0 0 94 38;" xml:space="preserve">
<style type="text/css">
	.st0{fill:#FFFDE9;}
</style>
<g>
	<path class="st0" d="M35.48,3.99c-0.2,0-0.88,0.07-2.19,0.07c-1.44,0-2.42-0.07-2.65-0.07c-0.13,0-0.16,0.07-0.16,0.2v0.52
		c0,0.1,0.03,0.16,0.16,0.16h0.79c0.49,0,0.82,0.39,0.88,0.95c0.07,0.49,0.23,2.36,0.23,4.09v3.86c0,1.57-0.43,2.81-1.24,3.63
		c-0.69,0.65-1.9,1.05-2.88,1.05c-1.01,0-2.19-0.36-2.91-1.34c-0.52-0.69-0.69-1.67-0.75-2.65c-0.03-0.69-0.07-2.23-0.07-3.31V8.51
		c0-1.24,0.03-2.55,0.07-2.81c0-0.43,0.39-0.82,1.05-0.82h0.92c0.13,0,0.16-0.07,0.16-0.2V4.16c0-0.1-0.03-0.16-0.16-0.16
		c-0.26,0-1.31,0.07-3.11,0.07c-2.06,0-3.11-0.07-3.31-0.07c-0.1,0-0.51,0.04-0.92,0.06c-0.58,0.02-1.6,0.04-3.43,0.04
		c-0.49,0-0.75,0.03-0.82,0.23c-0.13,0.46-2.06,4.88-2.45,5.76c-0.56,1.28-2.06,4.84-2.26,5.2c-0.65-1.73-3.66-8.87-4.42-10.9
		C5.86,4.09,5.73,4.03,5.47,4.03c-0.26,0-0.85,0.07-1.9,0.07c-2.29,0-2.85-0.07-3.04-0.07c-0.13,0-0.16,0.07-0.16,0.13v0.56
		c0,0.07,0.03,0.16,0.16,0.16h0.95c0.95,0,1.05,0.46,1.05,1.24v3.67c0,0.39-0.13,5.7-0.33,7.2c-0.1,0.75-0.33,1.51-1.08,1.51H0.13
		C0,18.49,0,18.59,0,18.62v0.56c0,0.13,0,0.2,0.16,0.2c0.23,0,0.95-0.07,2.81-0.07c1.64,0,2.23,0.07,2.46,0.07
		c0.16,0,0.2-0.1,0.2-0.2v-0.52c0-0.07-0.03-0.16-0.16-0.16H4.52c-0.69,0-0.95-0.82-1.05-1.8c-0.13-1.41-0.1-5.04-0.1-5.3
		c0-0.26,0.03-5.66,0.1-5.99c0.26,0.26,2.26,5.07,2.65,6.09c0.1,0.33,2.91,7.04,2.98,7.17c0.1,0.26,0.23,0.39,0.36,0.39
		c0.23,0,0.39-0.33,0.46-0.49c0.13-0.2,2.32-5.27,2.65-5.96c0.23-0.56,2.95-6.84,3.11-7.14h0.1c0.03,0.06,0.03,5.4,0.03,6.06v1.21
		c0,1.7-0.03,4.81-0.07,5.01c-0.07,0.62-0.23,0.75-0.62,0.75h-1.31c-0.13,0-0.2,0.06-0.2,0.2v0.49c0,0.1,0.07,0.2,0.2,0.2
		c0.3,0,1.11-0.07,3.21-0.07c1.9,0,2.91,0.07,3.17,0.07c0.2,0,0.2-0.1,0.2-0.23v-0.49c0-0.07,0-0.16-0.13-0.16h-1.18
		c-0.39,0-0.59-0.33-0.59-1.15c0-0.36-0.07-3.5-0.07-4.81v-1.51c0-0.56,0-4.84,0.03-5.3c0.03-0.46,0.07-0.85,0.62-0.85h0.95h0.23
		h0.98c0.56,0,0.72,0.33,0.72,1.08v5.07c0,2.82,0.1,4.26,0.39,5.17c0.43,1.37,1.28,2.39,2.52,2.88c0.82,0.36,2.06,0.52,3.11,0.52
		c1.64,0,3.01-0.52,3.93-1.34c1.15-1.01,1.67-2.36,1.8-4.12c0.07-0.85,0.13-4.58,0.13-4.88c0-0.29,0-3.31,0.03-3.57
		c0.03-0.23,0.13-0.82,0.92-0.82h0.75c0.1,0,0.13-0.07,0.13-0.2V4.19C35.68,4.06,35.64,3.99,35.48,3.99"/>
	<path class="st0" d="M25.2,1.11c0,1.02,0.82,1.28,1.31,1.28c0.62,0,1.11-0.52,1.11-1.21c0-0.75-0.56-1.18-1.11-1.18
		C25.5,0,25.2,0.75,25.2,1.11"/>
	<path class="st0" d="M29.75,1.11c0,1.02,0.82,1.28,1.34,1.28c0.59,0,1.15-0.52,1.15-1.21c0-0.75-0.59-1.18-1.15-1.18
		C30.05,0,29.75,0.75,29.75,1.11"/>
	<path class="st0" d="M58.85,4.98c0.79,0,2.72,0.03,3.31,0.39c0.62,0.42,1.41,1.8,1.7,2.39c0.06,0.13,0.13,0.2,0.2,0.2l0.43-0.16
		c0.06-0.03,0.13-0.07,0.1-0.2c-0.16-1.02-0.59-3.7-0.66-4.09c-0.03-0.23-0.06-0.33-0.2-0.33c-0.13,0-0.23,0.1-0.39,0.2
		c-0.33,0.26-1.14,0.56-1.54,0.59c-1.01,0.03-1.9,0.1-4.25,0.1h-1.18c-2.1,0-3.01-0.07-4.16-0.1c-0.62-0.03-1.05-0.13-1.47-0.59
		c-0.13-0.1-0.2-0.2-0.33-0.2h-0.07c-0.13,0-0.23,0.1-0.39,0.2c-0.33,0.26-1.14,0.56-1.54,0.59c-1.01,0.03-1.9,0.1-4.25,0.1h-1.18
		c-2.1,0-3.01-0.07-4.16-0.1c-0.62-0.03-1.05-0.13-1.47-0.59c-0.13-0.1-0.2-0.2-0.33-0.2c-0.1,0-0.23,0.1-0.26,0.39
		c-0.1,0.29-0.82,3.14-1.05,3.96c0,0.1,0,0.16,0.1,0.2l0.43,0.16c0.1,0.03,0.16-0.07,0.23-0.16c0.43-0.72,1.24-2.16,1.93-2.45
		c0.88-0.29,2.46-0.29,3.14-0.29h0.59v5.37c0,0.42,0,7-0.07,7.56c-0.03,0.33-0.29,0.59-0.72,0.59h-1.21c-0.1,0-0.16,0.03-0.16,0.16
		v0.49c0,0.16,0.06,0.2,0.2,0.2c0.29,0,1.18-0.07,3.37-0.07c2.32,0,3.01,0.07,3.24,0.07c0.16,0,0.2-0.07,0.2-0.2v-0.46
		c0-0.1-0.03-0.2-0.13-0.2h-1.24c-0.49,0-0.72-0.43-0.72-2.06V4.98h0.59c0.78,0,2.72,0.03,3.34,0.39c0.2,0.16,0.42,0.42,0.65,0.72
		c0.26,0.36,0.52,0.75,0.72,1.11c0.2-0.36,0.46-0.78,0.75-1.15c0.29-0.36,0.59-0.65,0.85-0.78c0.88-0.29,2.42-0.29,3.11-0.29h0.62
		v5.37c0,0.42,0,7-0.06,7.56c-0.03,0.33-0.3,0.59-0.72,0.59h-1.21c-0.1,0-0.16,0.03-0.16,0.16v0.49c0,0.16,0.06,0.2,0.16,0.2
		c0.33,0,1.21-0.07,3.4-0.07c2.32,0,3.01,0.07,3.24,0.07c0.16,0,0.2-0.07,0.2-0.2v-0.46c0-0.1-0.03-0.2-0.13-0.2h-1.25
		c-0.52,0-0.72-0.43-0.72-2.06V4.98H58.85z"/>
	<path class="st0" d="M73.28,4.88c0.59,0.03,1.18,0.29,1.64,0.56c0.52,0.3,2.26,2.29,2.36,2.42c0.07,0.1,0.13,0.13,0.2,0.1
		l0.39-0.16c0.06-0.07,0.1-0.13,0.06-0.26c-0.1-0.2-0.92-3.11-0.98-3.4c-0.03-0.1-0.06-0.13-0.2-0.13c-0.1,0-0.49,0.03-0.85,0.03
		c-0.95,0-5.89,0.03-6.84,0.03h-0.59c-1.77,0.03-2.55-0.07-3.01-0.07c-0.1,0-0.13,0.03-0.13,0.16v0.56c0,0.1,0.03,0.13,0.13,0.13
		h0.82c0.65,0,0.85,0.2,0.95,0.75c0.03,0.33,0.06,2.98,0.06,4.75v7.23c0,0.79-0.06,0.92-1.05,0.92h-0.75c-0.16,0-0.2,0.03-0.2,0.16
		v0.52c0,0.13,0.03,0.16,0.16,0.16c0.2,0,0.49-0.03,0.92-0.03c0.46,0,1.05-0.03,1.83-0.03c3.6,0,5.79,0.03,7.17,0.03
		c1.31,0,1.8,0.03,1.9,0.03c0.26,0,0.42-0.13,0.49-0.33l1.01-3.21c0.03-0.13,0.03-0.2-0.03-0.23l-0.36-0.2
		c-0.06-0.07-0.13-0.03-0.23,0.06c-0.39,0.52-1.6,1.93-2,2.29c-0.56,0.46-1.38,0.69-1.77,0.72c-0.43,0.03-1.41,0.1-1.8,0.1
		c-0.82,0-1.34-0.1-1.67-0.2c-0.49-0.1-0.88-0.56-0.88-1.67c0-0.39-0.03-2.49-0.06-3.63v-1.31c0.69,0,1.7,0.06,2.49,0.13
		c0.46,0.03,0.88,0.36,1.08,0.78c0.1,0.26,0.26,0.72,0.33,1.08c0.06,0.13,0.1,0.16,0.2,0.13l0.46-0.07
		c0.13-0.03,0.16-0.07,0.16-0.16c-0.03-0.46-0.13-1.51-0.13-2.36c0-0.56,0-2,0.07-2.32c0-0.13-0.07-0.16-0.13-0.16l-0.56-0.06
		c-0.1,0-0.2,0.06-0.2,0.2c0,0.36-0.2,0.92-0.33,1.18c-0.26,0.52-0.52,0.69-0.98,0.79c-0.26,0.06-1.8,0.1-2.45,0.1l0.03-6.22
		L73.28,4.88z"/>
	<path class="st0" d="M80.84,17.77c0,0.59-0.33,0.72-0.82,0.72h-0.72c-0.1,0-0.13,0.07-0.13,0.16v0.49c0,0.13,0.03,0.2,0.16,0.2
		c0.23,0,0.72-0.07,2.85-0.07c2.23,0,2.65,0.07,2.95,0.07c0.16,0,0.23-0.03,0.23-0.2v-0.52c0-0.06-0.03-0.13-0.16-0.13h-1.08
		c-0.36,0-0.49-0.39-0.56-0.82c-0.07-0.33-0.1-2.75-0.1-4.02V12.5c0.23-0.03,0.62-0.07,0.69-0.07c0.92,0,1.41,0.59,1.93,1.34
		c0.36,0.46,0.95,1.47,1.18,1.83c0.2,0.36,1.01,1.9,1.41,2.52c0.29,0.43,0.69,1.02,0.95,1.21c0.46-0.03,1.28-0.07,1.9-0.07
		c1.37,0,1.93,0.07,2.09,0.07c0.13,0,0.16-0.07,0.16-0.23v-0.42c0-0.1-0.03-0.16-0.16-0.16c-0.52,0-1.11-0.03-1.51-0.39
		c-0.33-0.33-1.7-2.26-1.83-2.45c-0.2-0.26-1.51-2.29-1.77-2.62c-0.3-0.39-0.69-0.78-1.31-1.01v-0.06c2.39-0.39,4.02-1.51,4.02-4.22
		c0-0.82-0.39-1.7-1.18-2.42c-0.85-0.75-2.19-1.34-3.89-1.34c-0.65,0-2.65,0.06-3.83,0.06c-2.13,0-2.82-0.06-2.95-0.06
		c-0.13,0-0.16,0.03-0.16,0.16v0.56c0,0.1,0.03,0.13,0.16,0.13h0.82c0.39,0,0.69,0.36,0.69,1.08v5.66
		C80.88,13.62,80.88,15.61,80.84,17.77 M83.56,5.53c0-0.26,0.06-0.52,0.26-0.62c0.16-0.13,0.42-0.13,0.75-0.13
		c1.08,0,2.06,0.23,2.85,0.92c0.52,0.49,0.95,1.41,0.95,2.42c0,0.98-0.69,3.7-4.06,3.7c-0.23,0-0.49-0.07-0.82-0.1L83.56,5.53z"/>
	<path class="st0" d="M35.48,22.39c-0.2,0-0.88,0.07-2.19,0.07c-1.44,0-2.42-0.07-2.65-0.07c-0.13,0-0.16,0.03-0.16,0.16v0.56
		c0,0.07,0.03,0.13,0.16,0.13h0.79c0.49,0,0.82,0.39,0.88,0.95c0.07,0.49,0.23,2.39,0.23,4.13v3.86c0,1.57-0.43,2.82-1.24,3.63
		c-0.69,0.65-1.9,1.01-2.88,1.01c-1.01,0-2.19-0.33-2.91-1.31c-0.52-0.69-0.69-1.7-0.75-2.68c-0.03-0.69-0.07-2.19-0.07-3.27v-2.68
		c0-1.24,0.03-2.52,0.07-2.78c0-0.46,0.39-0.85,1.05-0.85h0.92c0.13,0,0.16-0.03,0.16-0.16v-0.52c0-0.13-0.03-0.16-0.16-0.16
		c-0.26,0-1.31,0.07-3.11,0.07c-2.06,0-3.11-0.07-3.31-0.07c-0.06,0-0.55-0.01-1.07,0.01c-0.6,0.02-1.6,0.04-3.28,0.02
		c-0.49,0-0.75,0.06-0.82,0.26c-0.13,0.42-2.06,4.88-2.45,5.76c-0.56,1.28-2.06,4.81-2.26,5.2c-0.65-1.77-3.66-8.9-4.42-10.93
		c-0.13-0.26-0.26-0.36-0.52-0.36c-0.26,0-0.85,0.06-1.9,0.06c-2.29,0-2.85-0.06-3.04-0.06c-0.13,0-0.16,0.1-0.16,0.13v0.59
		c0,0.07,0.03,0.16,0.16,0.16h0.95c0.95,0,1.05,0.46,1.05,1.24v3.67c0,0.39-0.13,5.66-0.33,7.17c-0.1,0.75-0.33,1.54-1.08,1.54H0.13
		C0,36.85,0,36.95,0,36.98v0.52c0,0.16,0,0.2,0.16,0.2c0.23,0,0.95-0.07,2.81-0.07c1.64,0,2.23,0.07,2.46,0.07
		c0.16,0,0.2-0.07,0.2-0.16v-0.52c0-0.07-0.03-0.16-0.16-0.16H4.52c-0.69,0-0.95-0.82-1.05-1.8c-0.13-1.41-0.1-5.07-0.1-5.3
		c0-0.26,0.03-5.69,0.1-5.99c0.26,0.26,2.26,5.07,2.65,6.05c0.1,0.36,2.91,7.07,2.98,7.2c0.1,0.23,0.23,0.36,0.36,0.36
		c0.23,0,0.39-0.29,0.46-0.46c0.13-0.23,2.32-5.3,2.65-5.99c0.23-0.56,2.95-6.81,3.11-7.13h0.1c0.03,0.1,0.03,5.43,0.03,6.09v1.18
		c0,1.74-0.03,4.81-0.07,5.04c-0.07,0.62-0.23,0.75-0.62,0.75h-1.31c-0.13,0-0.2,0.03-0.2,0.16v0.49c0,0.13,0.07,0.2,0.2,0.2
		c0.3,0,1.11-0.07,3.21-0.07c1.9,0,2.91,0.07,3.17,0.07c0.2,0,0.2-0.07,0.2-0.2v-0.49c0-0.07,0-0.16-0.13-0.16h-1.18
		c-0.39,0-0.59-0.36-0.59-1.18c0-0.36-0.07-3.5-0.07-4.78v-1.51c0-0.56,0-4.84,0.03-5.33c0.03-0.46,0.07-0.82,0.62-0.82h0.95h0.23
		h0.98c0.56,0,0.72,0.36,0.72,1.08v5.1c0,2.82,0.1,4.22,0.39,5.17c0.43,1.37,1.28,2.36,2.52,2.88c0.82,0.36,2.06,0.52,3.11,0.52
		c1.64,0,3.01-0.52,3.93-1.34c1.15-1.01,1.67-2.36,1.8-4.12c0.07-0.85,0.13-4.58,0.13-4.91c0-0.26,0-3.27,0.03-3.53
		c0.03-0.23,0.13-0.85,0.92-0.85h0.75c0.1,0,0.13-0.07,0.13-0.2v-0.49C35.68,22.45,35.64,22.39,35.48,22.39"/>
	<path class="st0" d="M41.27,28.34c-0.88-0.26-2.06-0.79-2.62-1.34c-0.52-0.56-0.62-1.21-0.62-1.93c0-0.82,0.69-2.19,2.42-2.19
		c0.98,0,1.67,0.33,2.23,0.92c0.79,0.82,1.11,1.67,1.34,2.29c0.03,0.13,0.13,0.13,0.2,0.13l0.36-0.13c0.06,0,0.13-0.06,0.13-0.13
		c0-0.23-0.36-3.24-0.36-3.57c0-0.23-0.03-0.36-0.16-0.36c-0.13,0-0.23,0.03-0.29,0.13l-0.3,0.29c-0.1,0.1-0.23,0.13-0.46,0.06
		c-0.43-0.2-1.28-0.52-2.68-0.52c-1.24,0-2.19,0.3-3.08,1.02c-1.01,0.82-1.51,1.83-1.51,3.01c0,1.31,0.36,2.39,1.08,3.08
		c1.05,0.95,2.45,1.54,3.14,1.8c2.29,0.88,3.17,1.51,3.17,3.5c0,1.77-1.64,2.52-2.78,2.52c-1.08,0-2.19-0.52-2.85-1.57
		c-0.59-0.95-0.75-1.77-0.82-2.45c0-0.1-0.03-0.16-0.13-0.16l-0.46-0.03c-0.1,0-0.1,0.03-0.13,0.16c-0.03,0.26-0.33,3.73-0.39,3.99
		c0,0.23,0.1,0.36,0.26,0.36c0.16,0,0.26-0.07,0.39-0.26c0.13-0.23,0.23-0.39,0.33-0.39c0.13,0,0.26,0.1,0.52,0.26
		c0.85,0.65,1.9,1.01,3.67,1.01c2.85,0,4.55-2.13,4.55-4.75c0-1.44-0.39-2.36-1.08-3.08C43.53,29.16,42.52,28.7,41.27,28.34"/>
	<path class="st0" d="M59.18,33.61c-0.07-0.03-0.13-0.03-0.23,0.1c-0.39,0.52-1.6,1.93-1.99,2.26c-0.56,0.49-1.38,0.69-1.77,0.75
		c-0.43,0.03-1.41,0.07-1.8,0.07c-0.82,0-1.34-0.07-1.67-0.16c-0.49-0.13-0.85-0.56-0.85-1.67c0-0.39-0.07-2.49-0.07-3.67
		l-0.03-1.28c0.69,0,1.7,0.03,2.49,0.13c0.49,0.03,0.88,0.33,1.08,0.75c0.1,0.26,0.26,0.75,0.33,1.08c0.07,0.13,0.1,0.16,0.2,0.16
		l0.46-0.1c0.13,0,0.16-0.03,0.16-0.13c-0.03-0.49-0.1-1.51-0.1-2.39c0-0.56,0-1.96,0.03-2.32c0-0.13-0.03-0.16-0.13-0.16L54.73,27
		c-0.1,0-0.16,0.03-0.16,0.16c0,0.39-0.23,0.92-0.36,1.21c-0.26,0.52-0.52,0.69-0.98,0.78c-0.26,0.06-1.8,0.1-2.46,0.1l0.03-6.22
		l3.27,0.1c0.59,0,1.18,0.3,1.64,0.56c0.52,0.29,2.29,2.26,2.36,2.39c0.07,0.13,0.13,0.13,0.2,0.13l0.39-0.2
		c0.1-0.03,0.1-0.1,0.06-0.23c-0.1-0.2-0.92-3.14-0.98-3.4c-0.03-0.1-0.07-0.13-0.2-0.13h-0.85c-0.95,0-5.89,0.07-6.84,0.07h-0.59
		c-1.77,0-2.52-0.07-3.01-0.07c-0.1,0-0.13,0.03-0.13,0.13v0.56c0,0.13,0.03,0.16,0.13,0.16h0.82c0.66,0,0.85,0.16,0.95,0.75
		c0.03,0.29,0.1,2.98,0.1,4.71v7.23c0,0.79-0.1,0.92-1.08,0.92h-0.75c-0.16,0-0.2,0.07-0.2,0.2v0.49c0,0.13,0.03,0.2,0.16,0.2
		c0.2,0,0.49-0.03,0.92-0.06h9c1.34,0.03,1.8,0.06,1.9,0.06c0.26,0,0.43-0.13,0.49-0.33l1.01-3.24c0.07-0.1,0.03-0.16-0.03-0.2
		L59.18,33.61z"/>
	<path class="st0" d="M93.87,36.72h-1.14c-0.39,0-0.59-0.33-0.62-1.14c0-0.36-0.03-3.5-0.03-4.81v-1.51c0-0.56,0-4.84,0.03-5.3
		c0-0.46,0.07-0.85,0.62-0.85h0.95c0.13,0,0.16-0.1,0.16-0.23v-0.42c0-0.13-0.03-0.2-0.13-0.2c-0.26,0-0.98,0.06-4.12,0.06
		c-0.52,0-0.78,0.03-0.85,0.26c-0.1,0.43-2.03,4.84-2.42,5.76c-0.56,1.24-2.09,4.81-2.26,5.17c-0.65-1.74-3.67-8.87-4.45-10.9
		c-0.1-0.3-0.26-0.36-0.49-0.36c-0.26,0-0.88,0.06-1.9,0.06c-1.31,0-2.06-0.03-2.49-0.03c-0.03,0-0.85-0.03-1.02-0.02
		c-0.34,0.01-0.79,0.02-1.33,0.02c-1.41,0-2.42-0.07-2.62-0.07c-0.13,0-0.16,0.07-0.16,0.2v0.52c0,0.1,0.03,0.16,0.16,0.16h0.75
		c0.49,0,0.82,0.36,0.88,0.95c0.07,0.49,0.26,2.36,0.26,4.09v3.86c0,1.57-0.46,2.82-1.24,3.63c-0.69,0.65-1.9,1.05-2.88,1.05
		c-1.05,0-2.19-0.36-2.95-1.34c-0.52-0.69-0.69-1.67-0.75-2.65c-0.03-0.69-0.07-2.23-0.07-3.31v-2.65c0-1.24,0.07-2.55,0.07-2.81
		c0.03-0.46,0.43-0.82,1.05-0.82h0.92c0.13,0,0.16-0.06,0.16-0.2v-0.52c0-0.1-0.03-0.16-0.16-0.16c-0.26,0-1.28,0.07-3.11,0.07
		c-2.06,0-3.08-0.07-3.3-0.07c-0.16,0-0.2,0.07-0.2,0.2v0.49c0,0.13,0.03,0.2,0.16,0.2h0.98c0.56,0,0.75,0.33,0.75,1.05v5.11
		c0,2.81,0.06,4.25,0.36,5.17c0.43,1.38,1.31,2.39,2.55,2.88c0.82,0.36,2.06,0.52,3.08,0.52c1.64,0,3.01-0.52,3.93-1.34
		c1.14-1.01,1.67-2.36,1.8-4.12c0.1-0.85,0.13-4.58,0.13-4.88c0-0.3,0-3.31,0.03-3.57c0.07-0.23,0.13-0.82,0.92-0.82h0.26h0.52h0.42
		c0.95,0,1.08,0.46,1.08,1.24v3.67c0,0.39-0.13,5.7-0.33,7.2c-0.13,0.75-0.36,1.51-1.08,1.51h-0.98c-0.13,0-0.13,0.1-0.13,0.13v0.56
		c0,0.13,0,0.2,0.16,0.2c0.23,0,0.95-0.06,2.78-0.06c1.64,0,2.26,0.06,2.46,0.06c0.16,0,0.23-0.1,0.23-0.2v-0.52
		c0-0.07-0.07-0.16-0.16-0.16h-0.95c-0.69,0-0.95-0.82-1.05-1.8c-0.13-1.41-0.1-5.04-0.1-5.3c0-0.26,0-5.66,0.1-5.99
		c0.26,0.26,2.23,5.07,2.62,6.09c0.13,0.33,2.95,7.04,3.01,7.17c0.1,0.26,0.23,0.39,0.36,0.39c0.2,0,0.36-0.29,0.46-0.49
		c0.1-0.2,2.29-5.27,2.62-5.96c0.26-0.56,2.98-6.84,3.14-7.13h0.1c0.03,0.07,0.03,5.4,0.03,6.05v1.21c0,1.7-0.03,4.81-0.07,5.01
		c-0.06,0.62-0.23,0.75-0.62,0.75h-1.34c-0.13,0-0.16,0.07-0.16,0.2v0.49c0,0.1,0.03,0.2,0.16,0.2c0.33,0,1.11-0.06,3.24-0.06
		c1.9,0,2.91,0.06,3.18,0.06c0.16,0,0.16-0.1,0.16-0.23v-0.49C94,36.82,94,36.72,93.87,36.72"/>
</g>
</svg>
